<svg xmlns="http://www.w3.org/2000/svg" width="48" height="48" viewBox="0 0 48 48"><g transform="translate(-128.028 -1948)"><g transform="translate(128.028 1948)"><rect width="48" height="48" fill="none"/></g><g transform="translate(138.504 1954.089)" fill="none"><path d="M11.836,35.191C8.165,30.665,0,19.7,0,13.535a13.5,13.5,0,1,1,27.007,0c0,6.161-8.229,17.13-11.836,21.656a2.122,2.122,0,0,1-3.334,0ZM13.5,18.047A4.512,4.512,0,1,0,9,13.535,4.511,4.511,0,0,0,13.5,18.047Z" stroke="none"/><path d="M 13.5032958984375 35 C 13.8503360748291 35 14.16524600982666 34.84566116333008 14.38816547393799 34.56771087646484 C 16.34512519836426 32.11289978027344 19.18304634094238 28.36532020568848 21.58952522277832 24.45248031616211 C 24.47919654846191 19.75398063659668 26.00659561157227 15.97878074645996 26.00659561157227 13.53503131866455 C 26.00659561157227 10.1866512298584 24.70538520812988 7.038540840148926 22.34266662597656 4.670610904693604 C 19.9808464050293 2.30358099937439 16.84162521362305 1.000000953674316 13.5032958984375 1.000000953674316 C 10.1639461517334 1.000000953674316 7.024365901947021 2.303560972213745 4.662925720214844 4.670560836791992 C 2.300845861434937 7.038180828094482 0.9999958872795105 10.18631076812744 0.9999958872795105 13.53503131866455 C 0.9999958872795105 15.9892406463623 2.519445896148682 19.76485061645508 5.394075870513916 24.45368003845215 C 8.131135940551758 28.91813087463379 11.35435581207275 33.00934219360352 12.61310577392578 34.56110000610352 L 12.61657619476318 34.56541061401367 C 12.84135627746582 34.84566116333008 13.1562557220459 35 13.5032958984375 35 M 13.5032958984375 8.023350715637207 C 16.5366153717041 8.023350715637207 19.00439643859863 10.49588108062744 19.00439643859863 13.53503131866455 C 19.00439643859863 16.57418060302734 16.5366153717041 19.04670143127441 13.5032958984375 19.04670143127441 C 10.46997547149658 19.04670143127441 8.002196311950684 16.57418060302734 8.002196311950684 13.53503131866455 C 8.002196311950684 10.49588108062744 10.46997547149658 8.023350715637207 13.5032958984375 8.023350715637207 M 13.5032958984375 36 C 12.88615322113037 36 12.26901054382324 35.73035430908203 11.83648586273193 35.19107055664062 C 8.165275573730469 30.66529083251953 -4.101562353753252e-06 19.69628143310547 -4.101562353753252e-06 13.53503131866455 C -4.101562353753252e-06 6.059741020202637 6.045536041259766 9.381103609484853e-07 13.5032958984375 9.381103609484853e-07 C 20.95823669433594 9.381103609484853e-07 27.00659561157227 6.059741020202637 27.00659561157227 13.53503131866455 C 27.00659561157227 19.69628143310547 18.77802658081055 30.66529083251953 15.17010593414307 35.19107055664062 C 14.73758125305176 35.73035430908203 14.12043857574463 36 13.5032958984375 36 Z M 13.5032958984375 9.023350715637207 C 11.02065563201904 9.023350715637207 9.002196311950684 11.0465612411499 9.002196311950684 13.53503131866455 C 9.002196311950684 16.02350044250488 11.02065563201904 18.04670143127441 13.5032958984375 18.04670143127441 C 15.98593616485596 18.04670143127441 18.00439643859863 16.02350044250488 18.00439643859863 13.53503131866455 C 18.00439643859863 11.0465612411499 15.98593616485596 9.023350715637207 13.5032958984375 9.023350715637207 Z" stroke="none" fill="#333"/></g></g></svg>