<svg xmlns="http://www.w3.org/2000/svg" width="48" height="48" viewBox="0 0 48 48"><g transform="translate(-128.028 -1948)"><g transform="translate(128.028 1948)"><rect width="48" height="48" fill="none"/></g><g transform="translate(134.003 1953.974)" fill="none"><path d="M24.75,18a43.964,43.964,0,0,1-.232,4.5H11.482a43.572,43.572,0,0,1-.3-4.5,43.572,43.572,0,0,1,.3-4.5H24.518A43.964,43.964,0,0,1,24.75,18Zm10.68-4.5a18.063,18.063,0,0,1,0,9H26.775c.148-1.448.225-3.016.225-4.5a44.424,44.424,0,0,0-.225-4.5Zm-.738-2.25H26.487C25.784,6.76,24.391,3,22.6.594A18.04,18.04,0,0,1,34.692,11.25Zm-10.484,0H11.791a28.238,28.238,0,0,1,1.9-6.655A11.5,11.5,0,0,1,16.045.971,2.9,2.9,0,0,1,18,0a2.9,2.9,0,0,1,1.955.971A11.5,11.5,0,0,1,22.31,4.595a28.238,28.238,0,0,1,1.9,6.655Zm-22.9,0A18.036,18.036,0,0,1,13.4.594C11.609,3,10.216,6.76,9.513,11.25ZM9.225,13.5A44.131,44.131,0,0,0,8.937,18c0,1.484.141,3.052.288,4.5H.567a18.138,18.138,0,0,1,0-9ZM13.69,31.4a28.177,28.177,0,0,1-1.9-6.652H24.209a28.177,28.177,0,0,1-1.9,6.652,11.447,11.447,0,0,1-2.355,3.628,2.91,2.91,0,0,1-2.018.97,2.913,2.913,0,0,1-1.891-.97A11.447,11.447,0,0,1,13.69,31.4ZM13.4,35.409A18.042,18.042,0,0,1,1.309,24.75h8.2c.7,4.493,2.1,8.255,3.888,10.659Zm9.2,0c1.793-2.4,3.185-6.166,3.888-10.659h8.205A18.046,18.046,0,0,1,22.6,35.409Z" stroke="none"/><path d="M 18 1 C 17.65147972106934 1 17.21363067626953 1.240768432617188 16.73624038696289 1.693939208984375 C 16.21113014221191 2.195819854736328 15.41486930847168 3.177009582519531 14.60454940795898 4.999029159545898 C 13.94203758239746 6.498622894287109 13.39179611206055 8.295633316040039 12.99372100830078 10.25 L 23.00627517700195 10.25 C 22.60822677612305 8.295688629150391 22.05812835693359 6.498998641967773 21.39645004272461 5.001279830932617 C 20.58512878417969 3.177009582519531 19.78886985778809 2.195819854736328 19.26621055603027 1.696269989013672 C 18.78636932373047 1.240768432617188 18.34852027893066 1 18 1 M 11.1104907989502 2.456077575683594 C 7.575809478759766 4.028575897216797 4.644159317016602 6.788246154785156 2.865604400634766 10.25 L 8.667156219482422 10.25 C 9.199613571166992 7.277976989746094 10.0392894744873 4.611352920532227 11.1104907989502 2.456077575683594 M 24.88955688476562 2.456172943115234 C 25.96075820922852 4.611448287963867 26.80038452148438 7.277976989746094 27.33284378051758 10.25 L 33.13474273681641 10.25 C 31.35538864135742 6.788286209106445 28.42342567443848 4.028629302978516 24.88955688476562 2.456172943115234 M 1.36083984375 14.5 C 1.121204376220703 15.64754486083984 1 16.82155418395996 1 18 C 1 19.17844581604004 1.121204376220703 20.35245513916016 1.36083984375 21.5 L 8.123212814331055 21.5 C 8.017681121826172 20.3393726348877 7.93671989440918 19.1473560333252 7.93671989440918 18 C 7.93671989440918 16.80450630187988 8.018661499023438 15.6289176940918 8.122442245483398 14.5 L 1.36083984375 14.5 M 12.38677597045898 14.5 C 12.27133560180664 15.69743347167969 12.18671989440918 16.8275203704834 12.18671989440918 18 C 12.18671989440918 19.17248725891113 12.27133560180664 20.30257225036621 12.38677597045898 21.5 L 23.60613250732422 21.5 C 23.70167922973633 20.33244895935059 23.75 19.1588077545166 23.75 18 C 23.75 16.84119987487793 23.70167922973633 15.66755485534668 23.60613250732422 14.5 L 12.38677597045898 14.5 M 27.86788749694824 14.5 C 27.95565223693848 15.65021324157715 28 16.82306289672852 28 18 C 28 19.15839004516602 27.95457649230957 20.3497428894043 27.86743545532227 21.5 L 34.63781356811523 21.5 C 34.87833404541016 20.35473251342773 35 19.18070411682129 35 18 C 35 16.81929588317871 34.87833404541016 15.64526557922363 34.63781356811523 14.5 L 27.86788749694824 14.5 M 2.865776062011719 25.75 C 3.831867218017578 27.62957191467285 5.153129577636719 29.3342342376709 6.740879058837891 30.73867988586426 C 8.043594360351562 31.8909912109375 9.524433135986328 32.83954620361328 11.11005401611328 33.54503631591797 C 10.03885841369629 31.38897323608398 9.199249267578125 28.7215633392334 8.667083740234375 25.75 L 2.865776062011719 25.75 M 12.99374389648438 25.75 C 13.39175605773926 27.70361328125 13.94191551208496 29.49931526184082 14.60412979125977 30.99649047851562 C 15.41230010986328 32.82062911987305 16.20965957641602 33.8034782409668 16.73269081115723 34.30339813232422 C 17.43325042724609 34.9664192199707 17.85857009887695 35 17.93671989440918 35 C 18.19194984436035 35 18.60757064819336 34.92779159545898 19.26375007629395 34.30677032470703 C 19.79034042358398 33.8034782409668 20.58769989013672 32.82062911987305 21.39562034606934 30.99704933166504 C 22.05805206298828 29.4993896484375 22.60824584960938 27.7036190032959 23.00625228881836 25.75 L 12.99374389648438 25.75 M 27.33291625976562 25.75 C 26.80075073242188 28.7215633392334 25.96116256713867 31.3889331817627 24.88996505737305 33.54499435424805 C 26.47535705566406 32.83953857421875 27.95631408691406 31.89091682434082 29.25893974304199 30.73867988586426 C 30.84658622741699 29.33432388305664 32.16799926757812 27.62971878051758 33.13457107543945 25.75 L 27.33291625976562 25.75 M 18 0 C 18.51328086853027 0 19.16719055175781 0.22344970703125 19.95469093322754 0.9710197448730469 C 20.74921989440918 1.730388641357422 21.57186889648438 2.934841156005859 22.31015968322754 4.594919204711914 C 23.11874961853027 6.425159454345703 23.77968978881836 8.690629959106445 24.20858955383301 11.25 L 11.79140090942383 11.25 C 12.22031021118164 8.690629959106445 12.88125038146973 6.425159454345703 13.68984031677246 4.594919204711914 C 14.42812919616699 2.934841156005859 15.25078010559082 1.730388641357422 16.04530906677246 0.9710197448730469 C 16.83280944824219 0.22344970703125 17.48671913146973 0 18 0 Z M 13.40155982971191 0.5935783386230469 C 11.60858917236328 2.996719360351562 10.21640968322754 6.75984001159668 9.513280868530273 11.25 L 1.308521270751953 11.25 C 3.416481018066406 6.042659759521484 7.889059066772461 2.045391082763672 13.40155982971191 0.5935783386230469 Z M 22.59844017028809 0.5935783386230469 C 28.11093902587891 2.045391082763672 32.58280944824219 6.042659759521484 34.69218826293945 11.25 L 26.48672103881836 11.25 C 25.78359031677246 6.75984001159668 24.39141082763672 2.996719360351562 22.59844017028809 0.5935783386230469 Z M 0.5670700073242188 13.5 L 9.225000381469727 13.5 C 9.077339172363281 14.94844055175781 8.93671989440918 16.4531192779541 8.93671989440918 18 C 8.93671989440918 19.48358917236328 9.077339172363281 21.05155944824219 9.225000381469727 22.5 L 0.5670700073242188 22.5 C 0.1968803405761719 21.05858993530273 0 19.55390930175781 0 18 C 0 16.44609069824219 0.1968803405761719 14.94141006469727 0.5670700073242188 13.5 Z M 11.48203086853027 13.5 L 24.51797103881836 13.5 C 24.66563034057617 14.93437957763672 24.75 16.43906021118164 24.75 18 C 24.75 19.56093978881836 24.66563034057617 21.06562995910645 24.51797103881836 22.5 L 11.48203086853027 22.5 C 11.33437919616699 21.06562995910645 11.18671989440918 19.56093978881836 11.18671989440918 18 C 11.18671989440918 16.43906021118164 11.33437919616699 14.93437957763672 11.48203086853027 13.5 Z M 26.77499961853027 13.5 L 35.43046951293945 13.5 C 35.80313110351562 14.94141006469727 36 16.44609069824219 36 18 C 36 19.55390930175781 35.80313110351562 21.05858993530273 35.43046951293945 22.5 L 26.77499961853027 22.5 C 26.92266082763672 21.05155944824219 27 19.48358917236328 27 18 C 27 16.4531192779541 26.92266082763672 14.94844055175781 26.77499961853027 13.5 Z M 1.308521270751953 24.75 L 9.513280868530273 24.75 C 10.21640968322754 29.24296951293945 11.60858917236328 33.00468826293945 13.40155982971191 35.40937042236328 C 7.889059066772461 33.95391082763672 3.416481018066406 29.96015930175781 1.308521270751953 24.75 Z M 11.79140090942383 24.75 L 24.20858955383301 24.75 C 23.77968978881836 27.30937957763672 23.11874961853027 29.57344055175781 22.31015968322754 31.40155982971191 C 21.57186889648438 33.06797027587891 20.74921989440918 34.27030944824219 19.95469093322754 35.02968978881836 C 19.16719055175781 35.77500152587891 18.51328086853027 36 17.93671989440918 36 C 17.48671913146973 36 16.83280944824219 35.77500152587891 16.04530906677246 35.02968978881836 C 15.25078010559082 34.27030944824219 14.42812919616699 33.06797027587891 13.68984031677246 31.40155982971191 C 12.88125038146973 29.57344055175781 12.22031021118164 27.30937957763672 11.79140090942383 24.75 Z M 26.48672103881836 24.75 L 34.69218826293945 24.75 C 32.58280944824219 29.96015930175781 28.11093902587891 33.95391082763672 22.59844017028809 35.40937042236328 C 24.39141082763672 33.00468826293945 25.78359031677246 29.24296951293945 26.48672103881836 24.75 Z" stroke="none" fill="#333"/></g></g></svg>