<svg xmlns="http://www.w3.org/2000/svg" width="48" height="48" viewBox="0 0 48 48"><g transform="translate(-128.028 -1948)"><g transform="translate(128.028 1948)"><rect width="48" height="48" fill="none"/></g><path d="M23.625,0A3.375,3.375,0,0,1,27,3.375v29.25A3.376,3.376,0,0,1,23.625,36h-6.75V30.375a3.375,3.375,0,0,0-6.75,0V36H3.375A3.375,3.375,0,0,1,0,32.625V3.375A3.375,3.375,0,0,1,3.375,0ZM4.5,19.125A1.126,1.126,0,0,0,5.625,20.25h2.25A1.128,1.128,0,0,0,9,19.125v-2.25A1.128,1.128,0,0,0,7.875,15.75H5.625A1.126,1.126,0,0,0,4.5,16.875Zm7.875-3.375a1.128,1.128,0,0,0-1.125,1.125v2.25a1.128,1.128,0,0,0,1.125,1.125h2.25a1.128,1.128,0,0,0,1.125-1.125v-2.25a1.128,1.128,0,0,0-1.125-1.125ZM18,19.125a1.128,1.128,0,0,0,1.125,1.125h2.25A1.128,1.128,0,0,0,22.5,19.125v-2.25a1.128,1.128,0,0,0-1.125-1.125h-2.25A1.128,1.128,0,0,0,18,16.875ZM5.625,6.75A1.126,1.126,0,0,0,4.5,7.875v2.25A1.126,1.126,0,0,0,5.625,11.25h2.25A1.128,1.128,0,0,0,9,10.125V7.875A1.128,1.128,0,0,0,7.875,6.75Zm5.625,3.375a1.128,1.128,0,0,0,1.125,1.125h2.25a1.128,1.128,0,0,0,1.125-1.125V7.875A1.128,1.128,0,0,0,14.625,6.75h-2.25A1.128,1.128,0,0,0,11.25,7.875ZM19.125,6.75A1.128,1.128,0,0,0,18,7.875v2.25a1.128,1.128,0,0,0,1.125,1.125h2.25A1.128,1.128,0,0,0,22.5,10.125V7.875A1.128,1.128,0,0,0,21.375,6.75Z" transform="translate(138.528 1954)" fill="none" stroke="#333" stroke-width="1"/></g></svg>