<svg xmlns="http://www.w3.org/2000/svg" width="48" height="48" viewBox="0 0 48 48"><g transform="translate(-128.028 -1948)"><g transform="translate(128.028 1948)"><rect width="48" height="48" fill="none"/></g><g transform="translate(102.028 1954.765)" fill="none"><path d="M50.069,1.089A1.038,1.038,0,0,1,51.132,0a14.8,14.8,0,0,1,14.88,14.712,1.078,1.078,0,0,1-1.1,1.051H50.069ZM32,17.865A15.831,15.831,0,0,1,45.691,2.25,1.023,1.023,0,0,1,46.88,3.258V18.916l10.4,10.279a.99.99,0,0,1-.1,1.524A15.983,15.983,0,0,1,32,17.865Zm34.968,1.051a1,1,0,0,1,1.023,1.117,15.688,15.688,0,0,1-4.909,9.346,1.081,1.081,0,0,1-1.408-.039L51.132,18.916Z" stroke="none"/><path d="M 51.13169860839844 0.9999961853027344 C 51.10775756835938 0.9999961853027344 51.09246444702148 1.002853393554688 51.08522796630859 1.004920959472656 C 51.07929611206055 1.015239715576172 51.06882858276367 1.042934417724609 51.06882858276367 1.088966369628906 L 51.06882858276367 14.76305389404297 L 64.9091796875 14.76305389404297 C 64.97433471679688 14.76305389404297 65.01190185546875 14.72444534301758 65.01190185546875 14.71218490600586 C 65.01190185546875 11.05204391479492 63.56942749023438 7.610145568847656 60.95021057128906 5.02049446105957 C 58.32794952392578 2.427835464477539 54.84099960327148 0.9999961853027344 51.13169860839844 0.9999961853027344 M 45.83975982666016 3.240274429321289 C 45.8328971862793 3.240274429321289 45.82553863525391 3.240686416625977 45.81783294677734 3.241504669189453 C 42.30448150634766 3.725534439086914 39.06832885742188 5.461036682128906 36.70433807373047 8.129034042358398 C 34.31555938720703 10.82502555847168 33 14.2825756072998 33 17.86479568481445 C 33 21.80685424804688 34.55330657958984 25.51318359375 37.37379837036133 28.3010139465332 C 40.19667816162109 31.09121513366699 43.95024871826172 32.62784576416016 47.94307708740234 32.62784576416016 C 51.06372833251953 32.62784576416016 54.05024337768555 31.68963241577148 56.58115005493164 29.91456604003906 C 56.5792350769043 29.91192626953125 56.57669830322266 29.90892601013184 56.57333755493164 29.90560531616211 L 45.88019943237305 19.33320617675781 L 45.88019943237305 3.258354187011719 C 45.88019943237305 3.250833511352539 45.87899780273438 3.247919082641602 45.87907028198242 3.247915267944336 C 45.87745666503906 3.246274948120117 45.86624145507812 3.240274429321289 45.83975982666016 3.240274429321289 M 53.5654296875 19.91566467285156 L 62.36820602416992 28.61904144287109 C 62.37116241455078 28.61944007873535 62.37522125244141 28.61978530883789 62.38042831420898 28.61978530883789 C 62.40485382080078 28.61978530883789 62.42985153198242 28.61235237121582 62.44754791259766 28.60319328308105 C 64.91719055175781 26.29842567443848 66.53134155273438 23.21874237060547 66.99722290039062 19.92162895202637 C 66.99105834960938 19.91857147216797 66.98171997070312 19.91566467285156 66.96849060058594 19.91566467285156 L 53.5654296875 19.91566467285156 M 51.13169860839844 -3.814697265625e-06 C 59.34901809692383 -3.814697265625e-06 66.01190185546875 6.587644577026367 66.01190185546875 14.71218490600586 C 66.01190185546875 15.30329513549805 65.50704956054688 15.76305389404297 64.9091796875 15.76305389404297 L 50.06882858276367 15.76305389404297 L 50.06882858276367 1.088966369628906 C 50.06882858276367 0.4962043762207031 50.47403717041016 -3.814697265625e-06 51.13169860839844 -3.814697265625e-06 Z M 45.83976364135742 2.240274429321289 C 46.43708801269531 2.240274429321289 46.88019943237305 2.696498870849609 46.88019943237305 3.258354187011719 L 46.88019943237305 18.91566467285156 L 57.27642059326172 29.19449424743652 C 57.72150802612305 29.63454437255859 57.68828964233398 30.35701560974121 57.17677688598633 30.71825408935547 C 54.57275009155273 32.55070495605469 51.38412857055664 33.62784576416016 47.94307708740234 33.62784576416016 C 39.14117050170898 33.62784576416016 32 26.57388496398926 32 17.86479568481445 C 32 9.897884368896484 37.98529815673828 3.306304931640625 45.69112777709961 2.249515533447266 C 45.74158096313477 2.243291854858398 45.79119491577148 2.240274429321289 45.83976364135742 2.240274429321289 Z M 51.13169860839844 18.91566467285156 L 66.96849060058594 18.91566467285156 C 67.57963562011719 18.91566467285156 68.07119750976562 19.42796516418457 67.99150085449219 20.0322151184082 C 67.47999572753906 23.70369338989258 65.6864013671875 26.96795463562012 63.08236694335938 29.37839508056641 C 62.68379211425781 29.69365310668945 62.05935287475586 29.71992492675781 61.67405700683594 29.33898544311523 L 51.13169860839844 18.91566467285156 Z" stroke="none" fill="#333"/></g></g></svg>