<svg xmlns="http://www.w3.org/2000/svg" width="56" height="56" viewBox="0 0 56 56"><g transform="translate(-315 -624)"><circle cx="28" cy="28" r="28" transform="translate(315 624)" fill="#f2f2f2"/><g transform="translate(329.303 637.097)"><path d="M1.863,16H22.354a1.863,1.863,0,0,1,1.863,1.863V43.011a1.863,1.863,0,0,1-1.863,1.863H1.863A1.863,1.863,0,0,1,0,43.011V17.863A1.863,1.863,0,0,1,1.863,16Zm0,0" transform="translate(0 -15.069)" fill="#37bbed"/><path d="M32,67.014V48H52.491V73.148H38.134Zm0,0" transform="translate(-30.137 -45.206)" fill="#efefef"/><path d="M38.134,380.759,32,374.625Z" transform="translate(-30.137 -352.817)" fill="#2e7d33"/><path d="M128,3.726V0h9.314V3.726a1.863,1.863,0,0,1-1.863,1.863h-5.588A1.863,1.863,0,0,1,128,3.726Zm0,0" transform="translate(-120.549)" fill="#37bbed"/><path d="M240.765,232.383A8.383,8.383,0,1,1,232.383,224,8.383,8.383,0,0,1,240.765,232.383Zm0,0" transform="translate(-210.96 -210.96)" fill="#37bbed"/><path d="M301.393,328.491l-1.805-1.806a.931.931,0,0,1,1.317-1.317l.6.6,4.218-3.516a.932.932,0,1,1,1.193,1.431Zm0,0" transform="translate(-281.891 -303.48)" fill="#fff"/><g transform="translate(5.588 7.451)"><path d="M160.931,128h7.451a.931.931,0,0,1,0,1.863h-7.451a.931.931,0,0,1,0-1.863Zm0,0" transform="translate(-156.274 -128)" fill="#37bbed"/><path d="M96,128h1.863v1.863H96Zm0,0" transform="translate(-96 -128)" fill="#37bbed"/><path d="M96,192h1.863v1.863H96Zm0,0" transform="translate(-96 -188.274)" fill="#37bbed"/><path d="M96,256h1.863v1.863H96Zm0,0" transform="translate(-96 -248.549)" fill="#37bbed"/><path d="M96,320h1.863v1.863H96Zm0,0" transform="translate(-96 -308.823)" fill="#37bbed"/><path d="M160.931,192h5.588a.931.931,0,1,1,0,1.863h-5.588a.931.931,0,0,1,0-1.863Zm0,0" transform="translate(-156.274 -188.274)" fill="#37bbed"/><path d="M160.931,256h1.863a.931.931,0,0,1,0,1.863h-1.863a.931.931,0,0,1,0-1.863Zm0,0" transform="translate(-156.274 -248.549)" fill="#37bbed"/></g></g></g></svg>