<svg xmlns="http://www.w3.org/2000/svg" width="56" height="56" viewBox="0 0 56 56"><g transform="translate(-315 -624)"><circle cx="28" cy="28" r="28" transform="translate(315 624)" fill="#f2f2f2"/><path d="M9.587,11.341a3.47,3.47,0,0,0-2.669,3.438,5.4,5.4,0,0,1,2.317-1.432ZM4.438,13.648,2.971,5.335a.167.167,0,0,1,.012-.12,18.052,18.052,0,0,1,8.758-2.27c.075,0,.144,0,.22,0a4.334,4.334,0,0,1,2.392-1.2A22.565,22.565,0,0,1,17,1.5,2.966,2.966,0,0,0,15.066.248,20.762,20.762,0,0,0,11.74-.017a20.979,20.979,0,0,0-10.2,2.644A3.071,3.071,0,0,0,.047,5.85l1.471,8.313c.66,3.73,6.316,6.58,9.476,6.58a3.912,3.912,0,0,0,.465-.031,13.805,13.805,0,0,1-1.83-3.134C7.419,16.98,4.713,15.182,4.438,13.648ZM8.962,7.286a1.934,1.934,0,0,0-.19-.528,2.939,2.939,0,0,1-1.633.851,2.931,2.931,0,0,1-1.83-.243A1.831,1.831,0,0,0,7.457,9.427,1.848,1.848,0,0,0,8.962,7.286Zm19.156-1.7A21.009,21.009,0,0,0,14.592,3.209a3.021,3.021,0,0,0-2.507,2.478l-1.474,8.359c-.712,4.037,4.417,9.1,7.335,9.606,2.878.516,9.476-2.487,10.19-6.524l1.471-8.318A3.056,3.056,0,0,0,28.118,5.59ZM15.454,10.076a1.855,1.855,0,0,1,3.655.637,1.889,1.889,0,0,1-.191.533,3.073,3.073,0,0,0-3.464-.614A1.133,1.133,0,0,1,15.454,10.076Zm3.225,9.207a4.927,4.927,0,0,1-4.124-5.194,7.625,7.625,0,0,0,4.61,2.5,7.631,7.631,0,0,0,5.185-.77A4.913,4.913,0,0,1,18.679,19.283Zm6.084-7.011a3.069,3.069,0,0,0-3.469-.608A1.828,1.828,0,0,1,21.3,11.1a1.852,1.852,0,0,1,3.649.643A2.16,2.16,0,0,1,24.763,12.272Z" transform="translate(328.172 640.153)" fill="#37bbed"/></g></svg>