<svg xmlns="http://www.w3.org/2000/svg" width="48" height="48" viewBox="0 0 48 48"><g transform="translate(-128.028 -1948)"><g transform="translate(128.028 1948)"><rect width="48" height="48" fill="none"/></g><path d="M5.363,23.958H.4v-16H5.363ZM2.877,5.781a2.89,2.89,0,1,1,2.877-2.9A2.9,2.9,0,0,1,2.877,5.781ZM23.952,23.958H19V16.172c0-1.856-.037-4.235-2.582-4.235-2.582,0-2.978,2.016-2.978,4.1v7.92H8.474v-16h4.764v2.182h.07a5.219,5.219,0,0,1,4.7-2.583c5.027,0,5.951,3.31,5.951,7.61v8.786Z" transform="translate(140.029 1960.021)" fill="#333"/><g transform="translate(134.028 1954)" fill="none" stroke="#333" stroke-width="1"><rect width="36" height="36" rx="2" stroke="none"/><rect x="0.5" y="0.5" width="35" height="35" rx="1.5" fill="none"/></g></g></svg>